0
SECTION
2
HEADER
9
$INSUNITS
70
4
9
$ACADVER
1
AC1014
9
$HANDSEED
5
FFFF
0
ENDSEC
0
SECTION
2
TABLES
0
TABLE
2
VPORT
5
8
100
AcDbSymbolTable
0
ENDTAB
0
TABLE
2
LTYPE
5
5
100
AcDbSymbolTable
0
LTYPE
5
14
100
AcDbSymbolTableRecord
100
AcDbLinetypeTableRecord
2
BYBLOCK
70
0
0
LTYPE
5
15
100
AcDbSymbolTableRecord
100
AcDbLinetypeTableRecord
2
BYLAYER
70
0
0
ENDTAB
0
TABLE
2
LAYER
5
2
100
AcDbSymbolTable
70
2
0
LAYER
5
50
100
AcDbSymbolTableRecord
100
AcDbLayerTableRecord
2
0
70
0
6
CONTINUOUS
0
ENDTAB
0
TABLE
2
STYLE
5
3
100
AcDbSymbolTable
70
1
0
STYLE
5
11
100
AcDbSymbolTableRecord
100
AcDbTextStyleTableRecord
2
STANDARD
70
0
0
ENDTAB
0
TABLE
2
VIEW
5
6
100
AcDbSymbolTable
70
0
0
ENDTAB
0
TABLE
2
UCS
5
7
100
AcDbSymbolTable
70
0
0
ENDTAB
0
TABLE
2
APPID
5
9
100
AcDbSymbolTable
70
2
0
APPID
5
12
100
AcDbSymbolTableRecord
100
AcDbRegAppTableRecord
2
ACAD
70
0
0
ENDTAB
0
TABLE
2
DIMSTYLE
5
A
100
AcDbSymbolTable
70
1
0
ENDTAB
0
TABLE
2
BLOCK_RECORD
5
1
100
AcDbSymbolTable
70
1
0
BLOCK_RECORD
5
1F
100
AcDbSymbolTableRecord
100
AcDbBlockTableRecord
2
*MODEL_SPACE
0
BLOCK_RECORD
5
1B
100
AcDbSymbolTableRecord
100
AcDbBlockTableRecord
2
*PAPER_SPACE
0
ENDTAB
0
ENDSEC
0
SECTION
2
BLOCKS
0
BLOCK
5
20
100
AcDbEntity
100
AcDbBlockBegin
2
*MODEL_SPACE
0
ENDBLK
5
21
100
AcDbEntity
100
AcDbBlockEnd
0
BLOCK
5
1C
100
AcDbEntity
100
AcDbBlockBegin
2
*PAPER_SPACE
0
ENDBLK
5
1D
100
AcDbEntity
100
AcDbBlockEnd
0
ENDSEC
0
SECTION
2
ENTITIES
0
CIRCLE
5
100
100
AcDbEntity
8
0
100
AcDbCircle
10
0
20
0
30
0
40
7.5
210
0
220
0
230
1
0
CIRCLE
5
101
100
AcDbEntity
8
0
100
AcDbCircle
10
8.7485542245721764
20
-15.156279193117296
30
0
40
3.0000000000000004
210
0
220
0
230
1
0
CIRCLE
5
102
100
AcDbEntity
8
0
100
AcDbCircle
10
-8.7514456958029978
20
-15.154609801423826
30
0
40
2.9999999999999991
210
0
220
0
230
1
0
CIRCLE
5
103
100
AcDbEntity
8
0
100
AcDbCircle
10
-17.499999920375181
20
0.0016693916934633546
30
0
40
3.0000000000000004
210
0
220
0
230
1
0
CIRCLE
5
104
100
AcDbEntity
8
0
100
AcDbCircle
10
-8.7485542245721835
20
15.156279193117294
30
0
40
2.9999999999999991
210
0
220
0
230
1
0
CIRCLE
5
105
100
AcDbEntity
8
0
100
AcDbCircle
10
8.7514456958029978
20
15.154609801423831
30
0
40
3.0000000000000004
210
0
220
0
230
1
0
CIRCLE
5
106
100
AcDbEntity
8
0
100
AcDbCircle
10
17.499999920375181
20
-0.0016693916934612115
30
0
40
2.9999999999999982
210
0
220
0
230
1
0
LWPOLYLINE
5
107
100
AcDbEntity
8
0
100
AcDbPolyline
90
36
70
1
43
0.0
10
22.609126902258687
20
-16.517487118734572
10
13.083868492426493
20
-11.01807661128186
42
-0.99999999999999989
10
16.083868492426493
20
-5.8219241885752275
10
25.609126902390731
20
-11.321334695929085
10
26.776944364365114
20
-8.1850626453128239
42
-0.33926973161508278
10
26.776944364545855
20
8.1850626447215316
10
25.609126902635726
20
11.321334695374897
10
16.083868453712153
20
5.8219241662234715
42
-0.9999999925494194
10
13.083868492426502
20
11.018076611281845
10
22.609126902616133
20
16.51748711824531
10
20.476944364590519
20
19.096982732606346
42
-0.33926973161508328
10
6.3000000003770467
20
27.282045377780037
10
3.0000000003770189
20
27.838821814109483
10
3.0000000000000027
20
16.840000799857084
42
-0.99999999999999989
10
-3.0000000000000004
20
16.840000799857076
10
-2.9999999997746096
20
27.838821814174402
10
-6.2999999997746041
20
27.282045377919172
42
-0.33926973161508311
10
-20.476944364168812
20
19.096982733058525
10
-22.609126902258691
20
16.517487118734564
10
-13.083868492426497
20
11.01807661128186
42
-0.99999999999999989
10
-16.083868492426497
20
5.8219241885752249
10
-25.609126902390731
20
11.321334695929082
10
-26.776944364365121
20
8.1850626453128186
42
-0.33926973161508289
10
-26.776944364545855
20
-8.1850626447215227
10
-25.609126902635715
20
-11.32133469537491
10
-16.0838684924265
20
-5.8219241885752222
42
-0.99999999999999989
10
-13.083868492426499
20
-11.018076611281851
10
-22.609126902616129
20
-16.517487118245317
10
-20.476944364590519
20
-19.096982732606332
42
-0.33926973161508295
10
-6.3000000003770484
20
-27.282045377780037
10
-3.000000000377022
20
-27.838821814109483
10
-3.0000000000000036
20
-16.840000799857084
42
-0.99999999999999989
10
2.9999999999999982
20
-16.840000799857076
10
2.9999999997746074
20
-27.838821814174402
10
6.2999999997745899
20
-27.282045377919161
42
-0.33926973161508273
10
20.476944364168798
20
-19.096982733058528
0
ENDSEC
0
SECTION
2
OBJECTS
0
DICTIONARY
5
C
100
AcDbDictionary
3
ACAD_GROUP
350
D
3
ACAD_MLINESTYLE
350
17
0
DICTIONARY
5
D
100
AcDbDictionary
0
DICTIONARY
5
1A
330
C
100
AcDbDictionary
0
DICTIONARY
5
17
100
AcDbDictionary
0
ENDSEC
0
EOF
